<svg width="1440" height="357" viewBox="0 0 1440 357" fill="none" xmlns="http://www.w3.org/2000/svg">
<path d="M-82.375 185.75C-82.375 153.133 -75.0917 124 -60.525 98.35C-45.6417 72.3833 -25.5333 52.275 -0.199998 38.025C25.45 23.4583 54.1083 16.175 85.775 16.175C122.825 16.175 155.283 25.675 183.15 44.675C211.017 63.675 230.492 89.9583 241.575 123.525H165.1C157.5 107.692 146.733 95.8167 132.8 87.9C119.183 79.9833 103.35 76.025 85.3 76.025C65.9833 76.025 48.725 80.6166 33.525 89.8C18.6417 98.6666 6.925 111.333 -1.62499 127.8C-9.85833 144.267 -13.975 163.583 -13.975 185.75C-13.975 207.6 -9.85833 226.917 -1.62499 243.7C6.925 260.167 18.6417 272.992 33.525 282.175C48.725 291.042 65.9833 295.475 85.3 295.475C103.35 295.475 119.183 291.517 132.8 283.6C146.733 275.367 157.5 263.333 165.1 247.5H241.575C230.492 281.383 211.017 307.825 183.15 326.825C155.6 345.508 123.142 354.85 85.775 354.85C54.1083 354.85 25.45 347.725 -0.199998 333.475C-25.5333 318.908 -45.6417 298.8 -60.525 273.15C-75.0917 247.5 -82.375 218.367 -82.375 185.75ZM195.775 219.475C195.775 192.875 201 169.283 211.45 148.7C222.216 128.117 236.625 112.283 254.675 101.2C273.041 90.1167 293.466 84.575 315.95 84.575C335.583 84.575 352.683 88.5333 367.25 96.45C382.133 104.367 394.008 114.342 402.875 126.375V88.85H469.85V352H402.875V313.525C394.325 325.875 382.45 336.167 367.25 344.4C352.366 352.317 335.108 356.275 315.475 356.275C293.308 356.275 273.041 350.575 254.675 339.175C236.625 327.775 222.216 311.783 211.45 291.2C201 270.3 195.775 246.392 195.775 219.475ZM402.875 220.425C402.875 204.275 399.708 190.5 393.375 179.1C387.041 167.383 378.491 158.517 367.725 152.5C356.958 146.167 345.4 143 333.05 143C320.7 143 309.3 146.008 298.85 152.025C288.4 158.042 279.85 166.908 273.2 178.625C266.866 190.025 263.7 203.642 263.7 219.475C263.7 235.308 266.866 249.242 273.2 261.275C279.85 272.992 288.4 282.017 298.85 288.35C309.616 294.683 321.016 297.85 333.05 297.85C345.4 297.85 356.958 294.842 367.725 288.825C378.491 282.492 387.041 273.625 393.375 262.225C399.708 250.508 402.875 236.575 402.875 220.425ZM605.098 352L515.798 239.9V352H449.298V0.499995H515.798V200.475L604.148 88.85H690.598L574.698 220.9L691.548 352H605.098ZM707.691 129.7C716.241 115.767 727.324 104.842 740.941 96.925C754.874 89.0083 770.708 85.05 788.441 85.05V154.875H770.866C749.966 154.875 734.133 159.783 723.366 169.6C712.916 179.417 707.691 196.517 707.691 220.9V352H641.191V88.85H707.691V129.7ZM730.632 219.475C730.632 192.875 735.857 169.283 746.307 148.7C757.074 128.117 771.482 112.283 789.532 101.2C807.899 90.1167 828.324 84.575 850.807 84.575C870.44 84.575 887.54 88.5333 902.107 96.45C916.99 104.367 928.865 114.342 937.732 126.375V88.85H1004.71V352H937.732V313.525C929.182 325.875 917.307 336.167 902.107 344.4C887.224 352.317 869.965 356.275 850.332 356.275C828.165 356.275 807.899 350.575 789.532 339.175C771.482 327.775 757.074 311.783 746.307 291.2C735.857 270.3 730.632 246.392 730.632 219.475ZM937.732 220.425C937.732 204.275 934.565 190.5 928.232 179.1C921.899 167.383 913.349 158.517 902.582 152.5C891.815 146.167 880.257 143 867.907 143C855.557 143 844.157 146.008 833.707 152.025C823.257 158.042 814.707 166.908 808.057 178.625C801.724 190.025 798.557 203.642 798.557 219.475C798.557 235.308 801.724 249.242 808.057 261.275C814.707 272.992 823.257 282.017 833.707 288.35C844.474 294.683 855.874 297.85 867.907 297.85C880.257 297.85 891.815 294.842 902.582 288.825C913.349 282.492 921.899 273.625 928.232 262.225C934.565 250.508 937.732 236.575 937.732 220.425ZM1209.78 20.45V74.125H1121.43V352H1054.93V74.125H966.581V20.45H1209.78ZM1239.3 129.7C1247.85 115.767 1258.93 104.842 1272.55 96.925C1286.48 89.0083 1302.32 85.05 1320.05 85.05V154.875H1302.48C1281.58 154.875 1265.74 159.783 1254.98 169.6C1244.53 179.417 1239.3 196.517 1239.3 220.9V352H1172.8V88.85H1239.3V129.7ZM1523.97 214.725C1523.97 224.225 1523.33 232.775 1522.07 240.375H1329.69C1331.28 259.375 1337.93 274.258 1349.64 285.025C1361.36 295.792 1375.77 301.175 1392.87 301.175C1417.57 301.175 1435.14 290.567 1445.59 269.35H1517.32C1509.72 294.683 1495.15 315.583 1473.62 332.05C1452.08 348.2 1425.64 356.275 1394.29 356.275C1368.96 356.275 1346.16 350.733 1325.89 339.65C1305.94 328.25 1290.27 312.258 1278.87 291.675C1267.78 271.092 1262.24 247.342 1262.24 220.425C1262.24 193.192 1267.78 169.283 1278.87 148.7C1289.95 128.117 1305.47 112.283 1325.42 101.2C1345.37 90.1167 1368.33 84.575 1394.29 84.575C1419.31 84.575 1441.63 89.9583 1461.27 100.725C1481.22 111.492 1496.58 126.85 1507.34 146.8C1518.43 166.433 1523.97 189.075 1523.97 214.725ZM1455.09 195.725C1454.78 178.625 1448.6 165.008 1436.57 154.875C1424.53 144.425 1409.81 139.2 1392.39 139.2C1375.93 139.2 1361.99 144.267 1350.59 154.4C1339.51 164.217 1332.7 177.992 1330.17 195.725H1455.09Z" fill="url(#paint0_linear_54_1910)"/>
<defs>
<linearGradient id="paint0_linear_54_1910" x1="-99" y1="185.5" x2="1540" y2="185.5" gradientUnits="userSpaceOnUse">
<stop stop-color="#03E7AF"/>
<stop offset="1" stop-color="#0DA3F3"/>
</linearGradient>
</defs>
</svg>
